<svg xmlns="http://www.w3.org/2000/svg" width="189.274" height="135.702" viewBox="0 0 189.274 135.702"><g transform="translate(-0.025 -0.002)"><g transform="translate(0.025 0.002)"><g transform="translate(57.398 82.805)"><g transform="translate(16.512 0.13)"><path d="M426.83,487.57h0l.035.772Z" transform="translate(-418.41 -476.453)" fill="#566d62"/><path d="M383.182,431.495l3.615,1.04V429.94H383.18Z" transform="translate(-383.18 -429.94)" fill="#566d62"/><path d="M383.19,440.2l3.615-.59v-.569L383.19,438Z" transform="translate(-383.188 -436.445)" fill="#566d62"/><path d="M383.19,447l3.617,1.532V446.34l-3.615.59Z" transform="translate(-383.188 -443.176)" fill="#566d62"/><path d="M383.19,446.92l3.615-.59h0Z" transform="translate(-383.188 -443.168)" fill="#566d62"/><path d="M383.19,452.673l3.617-.442v-.93l-3.617-1.532Z" transform="translate(-383.188 -445.945)" fill="#566d62"/><path d="M383.19,463.16l3.617.787V462.5l-3.617.442Z" transform="translate(-383.188 -456.219)" fill="#566d62"/><path d="M383.19,469.2l3.617-1.441v-1.067l-3.617-.791Z" transform="translate(-383.188 -458.963)" fill="#566d62"/><path d="M383.19,477.316l3.617.893v-2.73l-3.617,1.451Z" transform="translate(-383.188 -466.695)" fill="#566d62"/><path d="M383.2,488.952h2.745L383.2,486.79Z" transform="translate(-383.196 -475.824)" fill="#566d62"/><path d="M383.192,485.345l2.741,2.176h.874V485.9l-3.617-.9Z" transform="translate(-383.188 -474.379)" fill="#566d62"/><path d="M383.2,498.07h0Z" transform="translate(-383.196 -484.928)" fill="#566d62"/><path d="M411.28,460.359l1.709,1.335h3.194l1.559-.8V460l-6.46.272Z" transform="translate(-405.86 -454.201)" fill="#566d62"/><path d="M411.28,463.195h1.709l-1.709-1.335Z" transform="translate(-405.86 -455.703)" fill="#566d62"/><path d="M411.28,458.878l6.46-.274v-.334h-6.46Z" transform="translate(-405.86 -452.805)" fill="#566d62"/><path d="M438.662,465.552v-.772l-1.462.772Z" transform="translate(-426.78 -458.059)" fill="#566d62"/><path d="M436.8,465.439l1.462-.772v-.027l-1.559.8Z" transform="translate(-426.376 -457.946)" fill="#566d62"/><path d="M415,430H411.28v2.027h.8l.9-.621Z" transform="translate(-405.86 -429.988)" fill="#566d62"/><path d="M422.107,430l-2.027,1.4,1.975.623h2.359l.3-2.027Z" transform="translate(-412.962 -429.988)" fill="#566d62"/><path d="M420.08,431.395,422.107,430h0Z" transform="translate(-412.962 -429.988)" fill="#566d62"/><path d="M442.55,432.018h1.2V430h-.9Z" transform="translate(-431.098 -429.988)" fill="#566d62"/><path d="M415.43,437.853h1.14l-.243-.623Z" transform="translate(-409.209 -435.824)" fill="#566d62"/><path d="M416.327,437.23l-.9.621h0Z" transform="translate(-409.209 -435.824)" fill="#566d62"/><path d="M420.08,437.23l.241.623h1.736l-1.975-.623Z" transform="translate(-412.962 -435.824)" fill="#566d62"/><path d="M428.3,487.57H426.83l.035.772Z" transform="translate(-418.41 -476.453)" fill="#566d62"/><path d="M428.447,487.505l-1.437.772,4.2,1.182V488.5l-.467-1Z" transform="translate(-418.555 -476.389)" fill="#566d62"/><path d="M446.837,488.575V487.57h-.467Z" transform="translate(-434.181 -476.453)" fill="#566d62"/><path d="M414.288,487.57h-3v.118l3.03.664Z" transform="translate(-405.868 -476.453)" fill="#566d62"/><path d="M411.29,488.17v1.912h1.543l1.481-1.246Z" transform="translate(-405.868 -476.938)" fill="#566d62"/><path d="M419.33,492.866h1.91l-.43-1.246Z" transform="translate(-412.357 -479.722)" fill="#566d62"/><path d="M427.43,492.866h3.775V492.8L427,491.62Z" transform="translate(-418.547 -479.722)" fill="#566d62"/></g><g transform="translate(0 0.141)"><path d="M297.58,443.724l3.638-.594h0Z" transform="translate(-297.58 -440.597)" fill="#566d62"/><path d="M301.218,431.915V430H297.58v.866Z" transform="translate(-297.58 -430)" fill="#566d62"/><path d="M297.58,436.767l3.638-.594v-.617l-3.638-1.046Z" transform="translate(-297.58 -433.64)" fill="#566d62"/><path d="M301.218,445.263V443.13l-3.638.594Z" transform="translate(-297.58 -440.597)" fill="#566d62"/><path d="M297.58,449.173l3.638-.446v-.984L297.58,446.2Z" transform="translate(-297.58 -443.075)" fill="#566d62"/><path d="M297.58,459.907l3.64.8V459.29l-3.638.448Z" transform="translate(-297.58 -453.64)" fill="#566d62"/><path d="M297.582,465.844l3.638-1.453v-1.113l-3.64-.8Z" transform="translate(-297.58 -456.215)" fill="#566d62"/><path d="M297.59,474.163l3.638.9V472.39l-3.638,1.451Z" transform="translate(-297.588 -464.213)" fill="#566d62"/><path d="M297.59,485.241l3.638.652L297.59,483Z" transform="translate(-297.588 -472.776)" fill="#566d62"/><path d="M297.59,481.854l3.638,2.893v-2.268l-3.638-.9Z" transform="translate(-297.588 -471.63)" fill="#566d62"/><path d="M297.59,495.3h3.638l-3.638-.644Z" transform="translate(-297.588 -482.187)" fill="#566d62"/><path d="M328.624,430.067c-.312-.021-.635-.037-.974-.037h-1.86v2l1.8-1.248Z" transform="translate(-320.348 -430.024)" fill="#566d62"/><path d="M335.12,430.93l4.228,1.331.168-1.117a7.421,7.421,0,0,0-3.36-.934Z" transform="translate(-327.879 -430.169)" fill="#566d62"/><path d="M335.12,430.93l1.036-.72h0Z" transform="translate(-327.879 -430.169)" fill="#566d62"/><path d="M358.411,436.2a3.651,3.651,0,0,0-1.192-1.109h-.013l-.166,1.117Z" transform="translate(-345.57 -434.108)" fill="#566d62"/><path d="M325.79,435.188v.025h1.474a4.826,4.826,0,0,1,.964.091l-.648-1.364Z" transform="translate(-320.348 -433.18)" fill="#566d62"/><path d="M327.59,433.94l-1.8,1.246h0Z" transform="translate(-320.348 -433.18)" fill="#566d62"/><path d="M335.12,433.94h0l.646,1.362a2.8,2.8,0,0,1,.951.363,1.414,1.414,0,0,1,.679.964l1.952-1.35Z" transform="translate(-327.879 -433.18)" fill="#566d62"/><path d="M346.855,442.194a1.546,1.546,0,0,1,.029.3,1.5,1.5,0,0,1-.044.386l3.293.708a2.182,2.182,0,0,0,.347-.7l-1.68-2.045Z" transform="translate(-337.338 -438.749)" fill="#566d62"/><path d="M358.68,442.881a2.531,2.531,0,0,0-.3-2.041H357Z" transform="translate(-345.538 -438.749)" fill="#566d62"/><path d="M327.264,456.933H325.79l2.685,2.091a3.189,3.189,0,0,1,.635.193l2.106-1.08a6.621,6.621,0,0,0-1.144-.22,5.613,5.613,0,0,0,2.812-1.277l-4.547.193A4.792,4.792,0,0,1,327.264,456.933Z" transform="translate(-320.348 -451.501)" fill="#566d62"/><path d="M325.79,460.179h1.836a4.8,4.8,0,0,1,.849.069l-2.685-2.1Z" transform="translate(-320.348 -452.72)" fill="#566d62"/><path d="M339.865,452.246a2.771,2.771,0,0,1-.845.332l4.547-.193a2.642,2.642,0,0,0,.255-.3l-3.293-.706A1.41,1.41,0,0,1,339.865,452.246Z" transform="translate(-331.026 -447.256)" fill="#566d62"/><path d="M343.84,465.744a1.692,1.692,0,0,1,.557.579l2.052.947.86-1.829c-.042-.039-.081-.079-.125-.118a4.456,4.456,0,0,0-1.653-.883l-2.081,1.1A2.6,2.6,0,0,1,343.84,465.744Z" transform="translate(-334.602 -457.797)" fill="#566d62"/><path d="M343.085,465.471l2.081-1.1-.056-.015L343,465.448Z" transform="translate(-334.239 -457.732)" fill="#566d62"/><path d="M345.271,475.115l-2.05-.955a1.516,1.516,0,0,1,.193.762,1.493,1.493,0,0,1-.735,1.323,2.66,2.66,0,0,1-.689.312l.015.334Z" transform="translate(-333.423 -465.642)" fill="#566d62"/><path d="M360.782,471.989a3.02,3.02,0,0,0,.021-.328,2.726,2.726,0,0,0-.947-2.031L359,471.459Z" transform="translate(-347.152 -461.985)" fill="#566d62"/><path d="M342.05,480.887l3.393.955.081-.042a4.153,4.153,0,0,0,.772-.579l-.976-2.11Z" transform="translate(-333.472 -469.637)" fill="#566d62"/><path d="M359.978,481.211a2.575,2.575,0,0,0,.8-1.572L359,479.11Z" transform="translate(-347.152 -469.637)" fill="#566d62"/><path d="M328.925,486.59a4.363,4.363,0,0,1-1.26.166H325.8v.127l3.135.042Z" transform="translate(-320.356 -475.674)" fill="#566d62"/><path d="M342,486.59h0l.015.334Z" transform="translate(-333.431 -475.674)" fill="#566d62"/><path d="M325.79,488.11v1.908h.926l2.2-1.867Z" transform="translate(-320.348 -476.901)" fill="#566d62"/><path d="M330.59,490.211h1.35a13.338,13.338,0,0,0,1.472-.081l-.61-1.78Z" transform="translate(-324.222 -477.094)" fill="#566d62"/><path d="M342.66,490.1a7.236,7.236,0,0,0,2.784-.826l-3.393-.955Z" transform="translate(-333.472 -477.07)" fill="#566d62"/></g><g transform="translate(57.933 0.155)"><path d="M626.12,431.67v1.007l.723-.745Z" transform="translate(-620.678 -431.361)" fill="#566d62"/><path d="M626.13,433.748v.733h.673a9.976,9.976,0,0,1,2.161.218l-2.11-1.7Z" transform="translate(-620.686 -432.435)" fill="#566d62"/><path d="M644.2,433.608l2.741-1.35A11.069,11.069,0,0,0,643.16,431l.424,2.332A5.285,5.285,0,0,1,644.2,433.608Z" transform="translate(-634.431 -430.821)" fill="#566d62"/><path d="M649.244,439.257l3.729.565-.062-1.157a7.331,7.331,0,0,0-1.022-.83c-.193-.135-.4-.26-.617-.386l-2.741,1.35A4.764,4.764,0,0,1,649.244,439.257Z" transform="translate(-638.765 -436.026)" fill="#566d62"/><path d="M672.158,444.917a5.616,5.616,0,0,0-.918-1.157l.064,1.157Z" transform="translate(-657.095 -441.119)" fill="#566d62"/><path d="M652.23,446.82l.05.039a4.02,4.02,0,0,1,1.049,1.2l2.629-.671Z" transform="translate(-641.752 -443.589)" fill="#566d62"/><path d="M660.561,449.75l-2.631.671a3.913,3.913,0,0,1,.469,1.379l.9.37Z" transform="translate(-646.352 -445.954)" fill="#566d62"/><path d="M665,452.179l2.446-1.755a4.835,4.835,0,0,0-.332-.664h-.857Z" transform="translate(-652.058 -445.962)" fill="#566d62"/><path d="M667.851,455.33v-.017a5.534,5.534,0,0,0-.4-2.112L665,454.955Z" transform="translate(-652.058 -448.738)" fill="#566d62"/><path d="M666.7,464.925l1.065-1.217a5.808,5.808,0,0,0,.091-1.034L665,462.3Z" transform="translate(-652.058 -456.083)" fill="#566d62"/><path d="M659.948,462.3l-.934,1.275a3.825,3.825,0,0,1-.274.87l2.893.48Z" transform="translate(-647.006 -456.083)" fill="#566d62"/><path d="M660.231,460.38a5.108,5.108,0,0,1,.058.727,4.761,4.761,0,0,1-.089.918l.926-1.275Z" transform="translate(-648.184 -454.533)" fill="#566d62"/><path d="M631.98,432.383a6.631,6.631,0,0,1,.876.255l-.424-2.33a16.753,16.753,0,0,0-2.02-.177l-.542.559Z" transform="translate(-623.705 -430.118)" fill="#566d62"/><path d="M626.845,430.659l.542-.559H626.12v.307Z" transform="translate(-620.678 -430.094)" fill="#566d62"/><path d="M626.14,493.157h.922L626.14,492Z" transform="translate(-620.694 -480.054)" fill="#566d62"/><path d="M626.813,486.866h-.673v.858l.922,1.148h.417l1.35-2.182A10.137,10.137,0,0,1,626.813,486.866Z" transform="translate(-620.695 -475.768)" fill="#566d62"/><path d="M634.4,485.407l-1.35,2.18a15.02,15.02,0,0,0,3.374-.467l-.976-2.01a7.022,7.022,0,0,1-1.047.3Z" transform="translate(-626.272 -474.493)" fill="#566d62"/><path d="M655.667,473.42a3.816,3.816,0,0,1-.747,1.094l3.64-.613Z" transform="translate(-643.923 -465.058)" fill="#566d62"/><path d="M649.737,476.515a4.462,4.462,0,0,1-.465.422,5,5,0,0,1-.772.49l2.537,1.449a9.176,9.176,0,0,0,.837-.494c.052-.033.1-.069.152-.106l1.362-2.377Z" transform="translate(-638.741 -467.06)" fill="#566d62"/><path d="M645.51,484.069l.976,2.01a10.391,10.391,0,0,0,2.122-.81l-2.537-1.449A5.346,5.346,0,0,1,645.51,484.069Z" transform="translate(-636.328 -473.452)" fill="#566d62"/><path d="M666.73,473.194a5.493,5.493,0,0,0,2.427-3.594l-1.065,1.217Z" transform="translate(-653.455 -461.975)" fill="#566d62"/><path d="M597.91,430.07v1.863l3.638.91v-.291l-2.078-2.483Z" transform="translate(-597.91 -430.07)" fill="#566d62"/><path d="M608.079,432.553V430.07H606Z" transform="translate(-604.439 -430.07)" fill="#566d62"/><path d="M597.92,440.82l2.172,1.211,1.466-1.084v-.307l-3.638-.91Z" transform="translate(-597.918 -437.867)" fill="#566d62"/><path d="M597.92,445.38v2.7l2.172-1.485Z" transform="translate(-597.918 -442.427)" fill="#566d62"/><path d="M610.646,448.658V446l-1.466,1.084Z" transform="translate(-607.006 -442.927)" fill="#566d62"/><path d="M597.92,453.178V454l2-.118,1.636-.1v-.511l-1.466-1.568Z" transform="translate(-597.918 -447.528)" fill="#566d62"/><path d="M597.92,463.118v1.489l2-1.607Z" transform="translate(-597.918 -456.648)" fill="#566d62"/><path d="M599.922,463l-2,.125h0Z" transform="translate(-597.918 -456.648)" fill="#566d62"/><path d="M609.046,465.192l.93-1.879v-.883l-1.636.1Z" transform="translate(-606.328 -456.188)" fill="#566d62"/><path d="M608.3,462.58l1.636-.1h0Z" transform="translate(-606.296 -456.228)" fill="#566d62"/><path d="M599.922,463h0l-2,1.617v1.4l2.7-.359Z" transform="translate(-597.918 -456.648)" fill="#566d62"/><path d="M612.922,469.776V467L612,468.881Z" transform="translate(-609.282 -459.876)" fill="#566d62"/><path d="M600.7,476.75l-2.7.359v2.066l.567.486Z" transform="translate(-597.983 -467.746)" fill="#566d62"/><path d="M600.86,479.661l3.071-1.126v-.887l-.922-.9Z" transform="translate(-600.291 -467.746)" fill="#566d62"/><path d="M603.933,487.879V486l-3.073,1.128Z" transform="translate(-600.291 -475.211)" fill="#566d62"/><path d="M597.93,489.32v.874l.565-.386Z" transform="translate(-597.926 -477.891)" fill="#566d62"/><path d="M597.93,492.22v.8h3.638v-.438l-3.073-.752Z" transform="translate(-597.926 -479.917)" fill="#566d62"/></g><g transform="translate(118.426 0.164)"><path d="M920.279,464.154h0L917.86,464Z" transform="translate(-916.635 -457.465)" fill="#566d62"/><path d="M939.75,465.37l5.378.334h0Z" transform="translate(-934.303 -458.57)" fill="#566d62"/><path d="M911.524,431.929l3.511,1.532.127-.53V430.12h-1.427l-2.214.862Z" transform="translate(-911.518 -430.12)" fill="#566d62"/><path d="M929.867,445.23v-.54l-.127.53Z" transform="translate(-926.224 -441.879)" fill="#566d62"/><path d="M929.867,447.5v-.054l-.127-.01Z" transform="translate(-926.224 -444.099)" fill="#566d62"/><path d="M915.051,441.032,911.54,439.5v2.037l1.219,2.7Z" transform="translate(-911.534 -437.691)" fill="#566d62"/><path d="M917.86,450.643l2.419.15v-3.279l-.125-.064Z" transform="translate(-916.635 -444.107)" fill="#566d62"/><path d="M918.564,467.611l1.717-2.421v-1.036L917.86,464Z" transform="translate(-916.635 -457.465)" fill="#566d62"/><path d="M911.54,450.06v3.484l1.219-.791Z" transform="translate(-911.534 -446.214)" fill="#566d62"/><path d="M923.235,472.755V470.17l-1.715,2.421Z" transform="translate(-919.589 -462.444)" fill="#566d62"/><path d="M912.759,464l-1.219.791v2.267l1.929.55Z" transform="translate(-911.534 -457.465)" fill="#566d62"/><path d="M922.176,483.912l.965,1.769h.106v-2.8l-1.717-.164Z" transform="translate(-919.597 -472.574)" fill="#566d62"/><path d="M911.55,490.2v.471h3.532l-.964-1.767Z" transform="translate(-911.542 -477.561)" fill="#566d62"/><path d="M924.88,488.9l.965,1.769h0Z" transform="translate(-922.301 -477.561)" fill="#566d62"/><path d="M913.439,482.72l-1.929,1.966v.523l2.571-1.3Z" transform="translate(-911.51 -472.574)" fill="#566d62"/><path d="M922.16,483.912l-.65-1.192Z" transform="translate(-919.581 -472.574)" fill="#566d62"/><path d="M911.55,479.87v2.508l1.929-1.966Z" transform="translate(-911.542 -470.273)" fill="#566d62"/><path d="M911.54,430.982l2.211-.862H911.54Z" transform="translate(-911.534 -430.12)" fill="#566d62"/><path d="M943.029,432.674a1.639,1.639,0,0,1,.667.943l1.524-2.658a9.5,9.5,0,0,0-4.282-.829H939.75v.025l2.058,2.072A2.828,2.828,0,0,1,943.029,432.674Z" transform="translate(-934.303 -430.128)" fill="#566d62"/><path d="M941.808,432.356l-2.058-2.066v2h1.19A5.449,5.449,0,0,1,941.808,432.356Z" transform="translate(-934.303 -430.257)" fill="#566d62"/><path d="M954.054,453.123a2.369,2.369,0,0,1-.644.32l2.814,1.431a.468.468,0,0,0,.054-.027L954.756,452A1.613,1.613,0,0,1,954.054,453.123Z" transform="translate(-945.328 -447.779)" fill="#566d62"/><path d="M940.94,459.677h-1.19v.941l5.378.332c.027-.012.05-.025.075-.039l-2.818-1.431A4.7,4.7,0,0,1,940.94,459.677Z" transform="translate(-934.303 -453.816)" fill="#566d62"/><path d="M939.75,467.059l.5.772,1.034,1.252,2.479-2.064-.6-.706a8.061,8.061,0,0,0,1.968-.579l-5.378-.334Z" transform="translate(-934.303 -458.595)" fill="#566d62"/><path d="M939.752,474.17l.5.6-.5-.772Z" transform="translate(-934.303 -465.536)" fill="#566d62"/><path d="M947.767,475.928l3.9-.4-1.507-1.767-2.479,2.064Z" transform="translate(-940.703 -465.342)" fill="#566d62"/><path d="M950.208,485.842h1.229l1.576-1.765-.984-1.157-3.9.4Z" transform="translate(-941.066 -472.735)" fill="#566d62"/><path d="M968.178,490.685v-.237l-1.3-1.528-1.576,1.765Z" transform="translate(-954.924 -477.578)" fill="#566d62"/><path d="M960.254,437.341l3.461-.982a3.858,3.858,0,0,0-1.451-1.622,4.925,4.925,0,0,0-.53-.307l-1.524,2.658a1.627,1.627,0,0,1,.044.253Z" transform="translate(-950.816 -433.599)" fill="#566d62"/><path d="M960.45,445.593l3.235,1.589a2.955,2.955,0,0,0,.214-2.753l-3.459.982C960.446,445.472,960.45,445.531,960.45,445.593Z" transform="translate(-951.002 -441.67)" fill="#566d62"/><path d="M960.411,450.481a1.794,1.794,0,0,1-.021.268l1.526,2.855a4.123,4.123,0,0,0,1.157-.812,4.256,4.256,0,0,0,.579-.743l-3.235-1.589A.075.075,0,0,0,960.411,450.481Z" transform="translate(-950.961 -446.536)" fill="#566d62"/><path d="M980.433,497.077l-.193-.237v.237Z" transform="translate(-966.982 -483.97)" fill="#566d62"/></g><g transform="translate(77.089)"><path d="M715.231,433.335l-.53-1.115a9.821,9.821,0,0,0-2.421,1.157l1.061,1.852Z" transform="translate(-709.375 -431.651)" fill="#566d62"/><path d="M719.227,439.79a5.341,5.341,0,0,1,1.032-.557l-.579-1.223-1.89,1.9Z" transform="translate(-713.822 -436.324)" fill="#566d62"/><path d="M708.54,450.693l1.543-.787a3.678,3.678,0,0,1,1.495-2.539c.058-.044.118-.085.177-.127l-1.437.118Z" transform="translate(-706.356 -443.773)" fill="#566d62"/><path d="M710.093,461.754v-.116a4.135,4.135,0,0,1,.041-.579l-1.543.787Z" transform="translate(-706.397 -454.927)" fill="#566d62"/><path d="M710.465,466.356a3.834,3.834,0,0,1-.413-1.7l-1.512.093Z" transform="translate(-706.356 -457.833)" fill="#566d62"/><path d="M710.052,464.66h0l-1.512.093Z" transform="translate(-706.356 -457.833)" fill="#566d62"/><path d="M699.88,467.289a5.372,5.372,0,0,0,.44.758l5.156.53a5.078,5.078,0,0,1-.883-.54,3.883,3.883,0,0,1-1.117-1.3l-1.929-1.6Z" transform="translate(-699.367 -458.212)" fill="#566d62"/><path d="M733.329,486.673h.137l1.111-2.045-.21-.436a9.384,9.384,0,0,1-1.042.062,7.33,7.33,0,0,1-2.785-.494l1.8,2.882C732.658,486.661,732.988,486.673,733.329,486.673Z" transform="translate(-724.112 -473.249)" fill="#566d62"/><path d="M703.865,481.986A9.643,9.643,0,0,0,706,483.144l1.52-2.213c-.068-.029-.137-.058-.2-.089l-5.156-.532A6.945,6.945,0,0,0,703.865,481.986Z" transform="translate(-701.207 -470.464)" fill="#566d62"/><path d="M725.492,486.414l-1.8-2.882-.116-.052-1.52,2.222A11.641,11.641,0,0,0,725.492,486.414Z" transform="translate(-717.268 -473.023)" fill="#566d62"/><path d="M747.7,490.1l-.9-1.888-1.111,2.045A13.919,13.919,0,0,0,747.7,490.1Z" transform="translate(-736.34 -476.84)" fill="#566d62"/><path d="M745.69,490.295l1.111-2.045h0Z" transform="translate(-736.34 -476.872)" fill="#566d62"/><path d="M707.514,440.11l-1.061-1.85c-.079.052-.158.1-.235.16a7.66,7.66,0,0,0-1.157.993Z" transform="translate(-703.547 -436.525)" fill="#566d62"/><path d="M699.3,444.25a5.42,5.42,0,0,0-1.385,2.579l3.833-1.885Z" transform="translate(-697.777 -441.36)" fill="#566d62"/><path d="M701.46,447.85l-3.833,1.885c-.027.123-.05.247-.068.374l2.122,1.076Z" transform="translate(-697.494 -444.266)" fill="#566d62"/><path d="M697.284,459.56a5.677,5.677,0,0,0-.066.868,5.473,5.473,0,0,0,.511,2.365l1.67-2.157Z" transform="translate(-697.219 -453.717)" fill="#566d62"/><path d="M733.72,429.912l.108.224.276-.276C733.967,429.875,733.845,429.887,733.72,429.912Z" transform="translate(-726.679 -429.746)" fill="#566d62"/><path d="M747.1,429.687a12.982,12.982,0,0,0-3.38-.419h-.3l.579,2.425a8.077,8.077,0,0,1,1.4.15l3.422-1.491Z" transform="translate(-734.508 -429.268)" fill="#566d62"/><path d="M734.546,429.408l-.276.276,1,2.095a8.958,8.958,0,0,1,1.069-.064,2.738,2.738,0,0,1,.284.01l-.579-2.425A13.29,13.29,0,0,0,734.546,429.408Z" transform="translate(-727.123 -429.294)" fill="#566d62"/><path d="M753.71,436.363A5.56,5.56,0,0,1,756,437.368h0l1.13-2.508Z" transform="translate(-742.813 -433.781)" fill="#566d62"/><path d="M766.72,434.92l-1.13,2.508a3.728,3.728,0,0,1,1.52,3.1,4.2,4.2,0,0,1-.193,1.279l1.082.7Z" transform="translate(-752.401 -433.83)" fill="#566d62"/><path d="M769.734,470.65a3.587,3.587,0,0,1-.654,1.2l1.736-.5Z" transform="translate(-755.218 -462.667)" fill="#566d62"/><path d="M763.693,493.256c.193-.064.386-.133.579-.206l-.891-.449Z" transform="translate(-750.618 -480.383)" fill="#566d62"/><path d="M760.567,486.587l.891.449.193-.075-1.761-1.8Z" transform="translate(-747.801 -474.378)" fill="#566d62"/><path d="M761.138,474.788a4.227,4.227,0,0,1-.675.648,5.179,5.179,0,0,1-1.223.693l.123.258,1.759,1.8c.177-.073.353-.15.525-.233l1.225-3.665Z" transform="translate(-747.276 -465.605)" fill="#566d62"/><path d="M771.73,477.963a9.481,9.481,0,0,0,1.4-.828,8.4,8.4,0,0,0,.727-.579l-.9-2.257Z" transform="translate(-757.357 -465.613)" fill="#566d62"/><path d="M764.251,432.111l.052-.017a10.227,10.227,0,0,0-1.773-.654Z" transform="translate(-749.932 -431.021)" fill="#566d62"/><path d="M774.959,437.87a6.558,6.558,0,0,0-2.012-2.207,9.507,9.507,0,0,0-1.395-.824l-.052.017Z" transform="translate(-757.171 -433.765)" fill="#566d62"/><path d="M772.713,442.516l2.724-3.075a5.31,5.31,0,0,0-.534-1.507l-3.472-3.015Z" transform="translate(-757.115 -433.83)" fill="#566d62"/><path d="M780.324,461.981a5.441,5.441,0,0,0,.59-2.519,5.881,5.881,0,0,0-.1-1.1l-2.722,3.075Z" transform="translate(-762.49 -452.748)" fill="#566d62"/><path d="M778.977,476.557a6.043,6.043,0,0,0,1.339-1.711l-2.236-.546Z" transform="translate(-762.482 -465.613)" fill="#566d62"/></g><g transform="translate(31.981 0.151)"><path d="M463.38,465.048l2.3-.145,1.341-.083h0Z" transform="translate(-463.378 -458.113)" fill="#566d62"/><path d="M491.6,493.521h.86l-.86-1.071Z" transform="translate(-486.155 -480.413)" fill="#566d62"/><path d="M491.59,487.58v.938l.86,1.071h1.042l1.236-2.008Z" transform="translate(-486.146 -476.483)" fill="#566d62"/><path d="M502.706,487.58l-1.236,2.01h3.121l-.965-2.01Z" transform="translate(-494.121 -476.483)" fill="#566d62"/><path d="M518.339,487.773v-.193H518Z" transform="translate(-507.462 -476.483)" fill="#566d62"/><path d="M512.59,487.58l.976,2.01h.407v-1.817l-.338-.193Z" transform="translate(-503.096 -476.483)" fill="#566d62"/><path d="M467.01,433.2v-.569l-2.168-2.579H463.37v2.238Z" transform="translate(-463.37 -430.05)" fill="#566d62"/><path d="M473.168,430.05H471l2.166,2.579Z" transform="translate(-469.528 -430.05)" fill="#566d62"/><path d="M463.38,442.649l2.469,1.375,1.169-.866v-.6l-3.638-.91Z" transform="translate(-463.378 -439.412)" fill="#566d62"/><path d="M463.38,446.83v3.061l2.469-1.686Z" transform="translate(-463.378 -443.593)" fill="#566d62"/><path d="M477.349,451.572V449.45l-1.169.878Z" transform="translate(-473.709 -445.708)" fill="#566d62"/><path d="M463.38,455.678v.637l3.638-.228v-.845L465.849,454Z" transform="translate(-463.378 -449.38)" fill="#566d62"/><path d="M463.38,465.395V467.1l2.3-1.852Z" transform="translate(-463.378 -458.46)" fill="#566d62"/><path d="M476.046,467.573l.635-1.283v-1.46l-1.341.085Z" transform="translate(-473.031 -458.121)" fill="#566d62"/><path d="M465.677,465.26l-2.3,1.854v1.2l3.013-.4Z" transform="translate(-463.378 -458.468)" fill="#566d62"/><path d="M479.627,474.292V472.4L479,473.673Z" transform="translate(-475.985 -464.231)" fill="#566d62"/><path d="M466.433,479.05l-3,.4v1.773l.862.741Z" transform="translate(-463.418 -469.598)" fill="#566d62"/><path d="M467.86,481.92l2.776-1.02v-1.281l-.627-.619Z" transform="translate(-466.994 -469.558)" fill="#566d62"/><path d="M470.636,490.551v-1.7l-2.776,1.02Z" transform="translate(-466.994 -477.508)" fill="#566d62"/><path d="M463.39,490.3v1.331l.862-.59Z" transform="translate(-463.386 -478.678)" fill="#566d62"/><path d="M463.39,494.73v.154h3.638v-.064l-2.776-.681Z" transform="translate(-463.386 -481.777)" fill="#566d62"/></g><g transform="translate(46.025 5.693)"><path d="M539.907,458.78H536.18v2.027h.8l.9-.621Z" transform="translate(-536.18 -458.78)" fill="#566d62"/><path d="M547.025,458.78,545,460.186l1.975.621h2.359l.3-2.027Z" transform="translate(-543.299 -458.78)" fill="#566d62"/><path d="M545,460.186l2.027-1.406h0Z" transform="translate(-543.299 -458.78)" fill="#566d62"/><path d="M567.46,460.807h1.2V458.78h-.9Z" transform="translate(-561.426 -458.78)" fill="#566d62"/><path d="M540.34,466.691h1.14l-.241-.621Z" transform="translate(-539.538 -464.664)" fill="#566d62"/><path d="M541.247,466.07l-.9.621h0Z" transform="translate(-539.546 -464.664)" fill="#566d62"/><path d="M545,466.07l.241.621h1.736Z" transform="translate(-543.299 -464.664)" fill="#566d62"/></g><g transform="translate(97.656 0)"><path d="M821.851,433.335l-.531-1.115a9.786,9.786,0,0,0-2.421,1.157l1.061,1.85Z" transform="translate(-815.995 -431.651)" fill="#566d62"/><path d="M825.847,439.81a5.339,5.339,0,0,1,1.032-.557l-.579-1.223-1.89,1.9Z" transform="translate(-820.442 -436.34)" fill="#566d62"/><path d="M815.16,450.713l1.543-.787a3.677,3.677,0,0,1,1.495-2.539c.058-.044.12-.085.179-.127l-1.439.116Z" transform="translate(-812.976 -443.79)" fill="#566d62"/><path d="M816.713,461.774v-.116a4.792,4.792,0,0,1,.041-.579l-1.543.785Z" transform="translate(-813.017 -454.944)" fill="#566d62"/><path d="M817.085,466.376a3.858,3.858,0,0,1-.413-1.7l-1.512.093Z" transform="translate(-812.976 -457.849)" fill="#566d62"/><path d="M816.672,464.68h0l-1.512.093Z" transform="translate(-812.976 -457.849)" fill="#566d62"/><path d="M806.5,467.292a5.372,5.372,0,0,0,.44.758l5.156.527a5.267,5.267,0,0,1-.883-.54,3.9,3.9,0,0,1-1.117-1.3l-1.929-1.6Z" transform="translate(-805.987 -458.213)" fill="#566d62"/><path d="M839.947,486.669h.135l1.113-2.045-.208-.44a8.934,8.934,0,0,1-1.042.06,7.3,7.3,0,0,1-2.786-.494l1.8,2.884C839.278,486.657,839.61,486.669,839.947,486.669Z" transform="translate(-830.732 -473.241)" fill="#566d62"/><path d="M810.487,481.922a9.507,9.507,0,0,0,2.122,1.142l1.52-2.211a2,2,0,0,1-.193-.091l-5.156-.532A6.867,6.867,0,0,0,810.487,481.922Z" transform="translate(-807.827 -470.4)" fill="#566d62"/><path d="M832.112,486.434l-1.8-2.884-.116-.05-1.52,2.218A11.665,11.665,0,0,0,832.112,486.434Z" transform="translate(-823.888 -473.039)" fill="#566d62"/><path d="M854.32,490.157l-.9-1.887-1.113,2.045A13.978,13.978,0,0,0,854.32,490.157Z" transform="translate(-842.96 -476.889)" fill="#566d62"/><path d="M852.31,490.315l1.113-2.045h0Z" transform="translate(-842.96 -476.889)" fill="#566d62"/><path d="M814.134,440.13l-1.061-1.85c-.079.052-.158.1-.235.16a7.552,7.552,0,0,0-1.157.993Z" transform="translate(-810.167 -436.542)" fill="#566d62"/><path d="M805.917,444.27a5.432,5.432,0,0,0-1.387,2.579l3.833-1.885Z" transform="translate(-804.397 -441.377)" fill="#566d62"/><path d="M808.08,447.87l-3.833,1.885c-.027.122-.048.247-.068.372l2.122,1.078Z" transform="translate(-804.114 -444.282)" fill="#566d62"/><path d="M803.9,459.57a5.98,5.98,0,0,0-.066.868,5.511,5.511,0,0,0,.511,2.367l1.672-2.157Z" transform="translate(-803.839 -453.725)" fill="#566d62"/><path d="M840.34,429.924l.108.224.276-.278C840.595,429.9,840.467,429.9,840.34,429.924Z" transform="translate(-833.299 -429.754)" fill="#566d62"/><path d="M853.749,429.7a12.954,12.954,0,0,0-3.372-.421h-.307l.579,2.425a8.269,8.269,0,0,1,1.4.152l3.424-1.491Z" transform="translate(-841.152 -429.277)" fill="#566d62"/><path d="M841.176,429.386l-.276.278.993,2.095a9,9,0,0,1,1.069-.064h.283l-.579-2.425A14.244,14.244,0,0,0,841.176,429.386Z" transform="translate(-833.751 -429.27)" fill="#566d62"/><path d="M860.33,436.383a5.515,5.515,0,0,1,2.288,1.005h0l1.132-2.508Z" transform="translate(-849.433 -433.798)" fill="#566d62"/><path d="M873.35,434.94l-1.13,2.508a3.727,3.727,0,0,1,1.518,3.1,4.147,4.147,0,0,1-.193,1.279l1.084.7Z" transform="translate(-859.03 -433.846)" fill="#566d62"/><path d="M876.354,470.67a3.553,3.553,0,0,1-.654,1.2l1.736-.5Z" transform="translate(-861.838 -462.684)" fill="#566d62"/><path d="M870.314,493.24c.193-.064.386-.133.579-.206L870,492.58Z" transform="translate(-857.238 -480.368)" fill="#566d62"/><path d="M867.167,486.6l.891.449.193-.075-1.761-1.8Z" transform="translate(-854.405 -474.387)" fill="#566d62"/><path d="M867.758,474.808a4.212,4.212,0,0,1-.675.646,5.12,5.12,0,0,1-1.223.694l.124.257,1.761,1.8c.179-.073.353-.15.525-.233l1.227-3.665Z" transform="translate(-853.896 -465.622)" fill="#566d62"/><path d="M878.35,478.015a9.5,9.5,0,0,0,1.395-.822,7.737,7.737,0,0,0,.727-.579l-.9-2.255Z" transform="translate(-863.977 -465.662)" fill="#566d62"/><path d="M870.873,432.131l.052-.017a10.243,10.243,0,0,0-1.775-.654Z" transform="translate(-856.552 -431.038)" fill="#566d62"/><path d="M881.546,437.89a6.546,6.546,0,0,0-2.022-2.207,9.375,9.375,0,0,0-1.393-.824l-.052.015Z" transform="translate(-863.759 -433.782)" fill="#566d62"/><path d="M879.335,442.536l2.722-3.075a5.341,5.341,0,0,0-.534-1.508l-3.472-3.013Z" transform="translate(-863.735 -433.846)" fill="#566d62"/><path d="M886.944,462a5.441,5.441,0,0,0,.59-2.519,5.721,5.721,0,0,0-.1-1.1l-2.722,3.075Z" transform="translate(-869.11 -452.765)" fill="#566d62"/><path d="M885.6,476.565a5.981,5.981,0,0,0,1.339-1.709l-2.234-.546Z" transform="translate(-869.11 -465.622)" fill="#566d62"/></g><g transform="translate(17 16.433)"><text transform="translate(0 10)" fill="#566d62" font-size="10" font-family="Cambria"><tspan x="0" y="0">S</tspan><tspan y="0" letter-spacing="-0.02em">av</tspan><tspan y="0">e </tspan><tspan y="0" letter-spacing="-0.09em">Y</tspan><tspan y="0">our Time</tspan></text><text transform="translate(0 10)" fill="#566d62" font-size="10" font-family="Cambria"><tspan x="0" y="0">S</tspan><tspan y="0" letter-spacing="-0.02em">av</tspan><tspan y="0">e </tspan><tspan y="0" letter-spacing="-0.09em">Y</tspan><tspan y="0">our Time</tspan></text></g></g><path d="M24.624,498.86c-5.1,4.495-8.358,9.3-8.761,14.224l-.033-.241c.062,9.535,4.244,19.409,8.742,25.49l5.3-9.2C25.386,519.058,22.709,507.716,24.624,498.86Z" transform="translate(-12.781 -402.631)" fill="#cbeef3" fill-rule="evenodd"/><path d="M80.516,458.386a58.354,58.354,0,0,0,2.668,23.161q.828,2.581,1.721,5l7.284-12.61a83.883,83.883,0,0,1-2.434-21.379,84.055,84.055,0,0,0-9.238,5.826Z" transform="translate(-64.802 -365.262)" fill="#06dab0" fill-rule="evenodd"/><path d="M161.684,417.964c-2.378,1.009-4.7,2.066-6.944,3.167.039,2.417.17,4.848.386,7.259a94.262,94.262,0,0,0,1.331,9.433l8.418-14.583c-.168-2.143-.268-4.307-.287-6.479Q163.116,417.36,161.684,417.964Z" transform="translate(-124.896 -336.368)" fill="#566d62" fill-rule="evenodd"/><path d="M226.691,29.04c-2.164.147-4.437.357-6.751.629a16.545,16.545,0,0,0,4.143-17.984c-3.532-9.14-14.444-13.914-24.377-10.663s-15.123,13.293-11.589,22.432A18.327,18.327,0,0,0,199.34,33.992c-4.336,1.472-7.976,3.264-10.268,5.4-2.643,2.452-7.407,8.136-9.452,14.352,7.523-9.452,30.111-15,50.487-16.894a20.253,20.253,0,0,1-2.475-4.558,19.844,19.844,0,0,1-.941-3.252Z" transform="translate(-144.977 -0.002)" fill="#566d62" fill-rule="evenodd"/><path d="M196.005,69.785c-1.888.056-3.858.123-5.88.2a16.551,16.551,0,0,0,4.437-18.266c-3.534-9.141-14.446-13.914-24.38-10.663s-15.119,13.291-11.587,22.432a17.681,17.681,0,0,0,6.636,8.239c-27.349,2.882-57.1,9.793-69.985,27.116a28.8,28.8,0,0,0-5.355,10.559C100.577,92.1,139.744,85.221,160.8,82.4c3.4-.453,22.955-2.261,37.729-3.572a20.143,20.143,0,0,1-1.215-2.583A19.338,19.338,0,0,1,196.005,69.785Z" transform="translate(-72.555 -32.317)" fill="#06dab0" fill-rule="evenodd"/><path d="M159.329,130.7a16.609,16.609,0,0,0,4.809-18.6c-3.536-9.14-14.446-13.914-24.38-10.663s-15.125,13.293-11.587,22.432a17.488,17.488,0,0,0,5.089,7.07,462.129,462.129,0,0,0-50.319,5.249c-18.464,3.009-34.862,7.716-45.331,12.016-13.889,5.716-26.041,13.5-32.285,22.021C1.409,175.57-.792,181.641.308,188.362,1.3,177.463,17.476,167.1,36.959,159.5c40.123-15.642,109.583-19.571,151.589-18.819l-16.962-8.862A106.232,106.232,0,0,0,159.329,130.7Z" transform="translate(-0.025 -81.051)" fill="#cbeef3" fill-rule="evenodd"/></g></g></svg>