<svg xmlns="http://www.w3.org/2000/svg" xmlns:xlink="http://www.w3.org/1999/xlink" xmlns:fi="http://pattern.flaticon.com/" x="0" y="0" width="1920" height="960" viewBox="0 0 1680 840"><rect x="0px" y="0px" width="100%" height="100%" opacity="0" fill="#515151"/><defs><g transform="matrix(0.09115082841042461 0.046956488887117405 -0.046956488887117405 0.09115082841042461 138.68609824233337 45.64441680624697)" id="L1_0"><path d="m131.21875 216.835938c2.632812 0 5.210938-1.070313 7.070312-2.929688 1.859376-1.863281 2.929688-4.441406 2.929688-7.070312 0-2.632813-1.070312-5.210938-2.929688-7.070313-1.859374-1.859375-4.4375-2.929687-7.070312-2.929687-2.640625 0-5.207031 1.070312-7.070312 2.929687-1.859376 1.859375-2.929688 4.4375-2.929688 7.070313 0 2.628906 1.070312 5.207031 2.929688 7.070312 1.863281 1.859375 4.441406 2.929688 7.070312 2.929688zm0 0" fill="#2e3b2f"/><path d="m274.46875 203.59375c-1.867188-1.859375-4.4375-2.929688-7.078125-2.929688-2.628906 0-5.210937 1.070313-7.070313 2.929688-1.859374 1.859375-2.929687 4.441406-2.929687 7.070312 0 2.628907 1.070313 5.210938 2.929687 7.070313 1.859376 1.859375 4.441407 2.929687 7.070313 2.929687 2.640625 0 5.210937-1.070312 7.078125-2.929687 1.859375-1.859375 2.921875-4.429687 2.921875-7.070313 0-2.628906-1.0625-5.210937-2.921875-7.070312zm0 0" fill="#2e3b2f"/><path d="m302.398438 185.664062c2.632812 0 5.210937-1.070312 7.070312-2.929687s2.921875-4.441406 2.921875-7.070313c0-2.628906-1.0625-5.210937-2.921875-7.070312s-4.4375-2.929688-7.070312-2.929688c-2.636719 0-5.21875 1.070313-7.078126 2.929688-1.859374 1.859375-2.929687 4.441406-2.929687 7.070312 0 2.628907 1.070313 5.210938 2.929687 7.070313 1.859376 1.859375 4.441407 2.929687 7.078126 2.929687zm0 0" fill="#2e3b2f"/><path d="m482 245.996094h-27.902344l49.117188-49.117188c5.664062-5.667968 8.785156-13.203125 8.785156-21.214844 0-8.011718-3.121094-15.546874-8.785156-21.210937l-44.550782-44.550781c-3.902343-3.902344-10.234374-3.902344-14.140624 0-5.664063 5.667968-13.199219 8.789062-21.210938 8.789062-8.015625 0-15.546875-3.121094-21.214844-8.789062-5.667968-5.664063-8.785156-13.199219-8.785156-21.210938 0-8.015625 3.121094-15.546875 8.785156-21.214844 1.875-1.875 2.929688-4.417968 2.929688-7.070312s-1.054688-5.195312-2.929688-7.070312l-44.546875-44.546876c-5.667969-5.667968-13.199219-8.789062-21.214843-8.789062-8.011719 0-15.546876 3.121094-21.210938 8.789062l-165.164062 165.160157c-3.90625 3.902343-3.90625 10.234375 0 14.140625s10.238281 3.90625 14.144531 0l165.160156-165.160156c1.890625-1.890626 4.398437-2.929688 7.070313-2.929688 2.671874 0 5.183593 1.039062 7.070312 2.929688l38.183594 38.179687c-5.386719 8.109375-8.277344 17.625-8.277344 27.582031 0 13.355469 5.199219 25.910156 14.644531 35.355469 9.445313 9.441406 22 14.644531 35.355469 14.644531 9.957031 0 19.46875-2.890625 27.582031-8.277344l38.179688 38.179688c3.898437 3.898438 3.898437 10.242188 0 14.140625l-63.261719 63.261719h-43.839844l32.855469-32.855469c3.902344-3.90625 3.902344-10.238281 0-14.140625l-101.824219-101.824219c-3.90625-3.90625-10.238281-3.90625-14.144531 0l-148.820313 148.820313h-120.039062c-16.542969 0-30 13.457031-30 30v63c0 5.519531 4.476562 10 10 10 16.542969 0 30 13.457031 30 30 0 16.539062-13.457031 30-30 30-5.523438 0-10 4.476562-10 10v63c0 16.539062 13.457031 30 30 30h452c16.542969 0 30-13.460938 30-30v-63c0-5.523438-4.476562-10-10-10-16.542969 0-30-13.460938-30-30 0-16.542969 13.457031-30 30-30 5.523438 0 10-4.480469 10-10v-63c0-16.542969-13.457031-30-30-30zm-176.070312-127.609375 87.683593 87.683593-39.925781 39.925782h-39.597656l29.316406-29.320313c3.90625-3.902343 3.90625-10.234375 0-14.140625-3.902344-3.90625-10.234375-3.90625-14.140625 0l-43.460937 43.457032h-107.480469zm186.070312 211.613281c-22.792969 4.644531-40 24.847656-40 48.996094 0 24.144531 17.207031 44.347656 40 48.996094v54.003906c0 5.511718-4.484375 10-10 10h-452c-5.515625 0-10-4.488282-10-10v-54.003906c22.792969-4.648438 40-24.851563 40-48.996094 0-24.148438-17.207031-44.347656-40-48.996094v-54.003906c0-5.515625 4.484375-10 10-10h452c5.515625 0 10 4.484375 10 10zm0 0" fill="#2e3b2f"/><path d="m213.570312 362.066406c1.859376-1.863281 2.929688-4.441406 2.929688-7.070312 0-2.632813-1.070312-5.210938-2.929688-7.070313-1.859374-1.859375-4.441406-2.929687-7.070312-2.929687s-5.210938 1.070312-7.070312 2.929687c-1.859376 1.859375-2.929688 4.4375-2.929688 7.070313 0 2.628906 1.070312 5.207031 2.929688 7.070312 1.859374 1.859375 4.441406 2.929688 7.070312 2.929688s5.210938-1.070313 7.070312-2.929688zm0 0" fill="#2e3b2f"/><path d="m312.570312 362.066406c1.859376-1.863281 2.929688-4.441406 2.929688-7.070312 0-2.632813-1.070312-5.210938-2.929688-7.070313-1.859374-1.859375-4.441406-2.929687-7.070312-2.929687s-5.210938 1.070312-7.070312 2.929687c-1.859376 1.859375-2.929688 4.4375-2.929688 7.070313 0 2.628906 1.070312 5.207031 2.929688 7.070312 1.859374 1.859375 4.441406 2.929688 7.070312 2.929688s5.210938-1.070313 7.070312-2.929688zm0 0" fill="#2e3b2f"/><path d="m263.070312 362.066406c1.859376-1.863281 2.929688-4.441406 2.929688-7.070312 0-2.632813-1.070312-5.210938-2.929688-7.070313-1.859374-1.859375-4.441406-2.929687-7.070312-2.929687s-5.210938 1.070312-7.070312 2.929687c-1.859376 1.859375-2.929688 4.4375-2.929688 7.070313 0 2.628906 1.070312 5.207031 2.929688 7.070312 1.859374 1.859375 4.441406 2.929688 7.070312 2.929688s5.210938-1.070313 7.070312-2.929688zm0 0" fill="#2e3b2f"/><path d="m157 364.996094c2.628906 0 5.210938-1.070313 7.070312-2.929688 1.859376-1.863281 2.929688-4.441406 2.929688-7.070312 0-2.632813-1.070312-5.210938-2.929688-7.070313-1.859374-1.859375-4.441406-2.929687-7.070312-2.929687s-5.210938 1.070312-7.070312 2.929687c-1.859376 1.859375-2.929688 4.4375-2.929688 7.070313 0 2.628906 1.070312 5.207031 2.929688 7.070312 1.859374 1.859375 4.441406 2.929688 7.070312 2.929688zm0 0" fill="#2e3b2f"/><path d="m362.070312 362.066406c1.859376-1.863281 2.929688-4.441406 2.929688-7.070312 0-2.632813-1.070312-5.210938-2.929688-7.070313-1.859374-1.859375-4.441406-2.929687-7.070312-2.929687s-5.210938 1.070312-7.070312 2.929687c-1.859376 1.859375-2.929688 4.4375-2.929688 7.070313 0 2.628906 1.070312 5.207031 2.929688 7.070312 1.859374 1.859375 4.441406 2.929688 7.070312 2.929688s5.210938-1.070313 7.070312-2.929688zm0 0" fill="#2e3b2f"/><path d="m157 412.996094h198c5.523438 0 10-4.480469 10-10 0-5.523438-4.476562-10-10-10h-198c-5.523438 0-10 4.476562-10 10 0 5.519531 4.476562 10 10 10zm0 0" fill="#2e3b2f"/><path d="m193.320312 440.996094c-2.628906 0-5.210937 1.070312-7.070312 2.929687s-2.929688 4.4375-2.929688 7.070313c0 2.628906 1.070313 5.207031 2.929688 7.070312 1.859375 1.859375 4.441406 2.929688 7.070312 2.929688 2.640626 0 5.210938-1.070313 7.070313-2.929688 1.871094-1.863281 2.929687-4.441406 2.929687-7.070312 0-2.632813-1.058593-5.210938-2.929687-7.070313-1.859375-1.859375-4.429687-2.929687-7.070313-2.929687zm0 0" fill="#2e3b2f"/><path d="m408 296.996094h-304c-5.523438 0-10 4.476562-10 10v144c0 5.519531 4.476562 10 10 10h41.65625c5.523438 0 10-4.480469 10-10 0-5.523438-4.476562-10-10-10h-31.65625v-124h284v124h-162.34375c-5.523438 0-10 4.476562-10 10 0 5.519531 4.476562 10 10 10h172.34375c5.523438 0 10-4.480469 10-10v-144c0-5.523438-4.476562-10-10-10zm0 0" fill="#2e3b2f"/></g><g transform="matrix(0.07260315643381678 -0.030801338081472937 0.030801338081472937 0.07260315643381678 253.65510099507225 242.66792923429327)" id="L1_1"><path d="m38.872 149.21h79.098c4.142 0 7.5-3.357 7.5-7.5s-3.358-7.5-7.5-7.5h-79.098c-4.142 0-7.5 3.357-7.5 7.5s3.357 7.5 7.5 7.5z" fill="#ffffff"/><path d="m115.258 185.317h-31.246c-4.142 0-7.5 3.357-7.5 7.5s3.358 7.5 7.5 7.5h31.246c4.142 0 7.5-3.357 7.5-7.5s-3.358-7.5-7.5-7.5z" fill="#ffffff"/><path d="m7.5 237.327h76.512c4.142 0 7.5-3.357 7.5-7.5s-3.358-7.5-7.5-7.5h-76.512c-4.142 0-7.5 3.357-7.5 7.5s3.358 7.5 7.5 7.5z" fill="#ffffff"/><path d="m125.47 370.289c0-4.143-3.358-7.5-7.5-7.5h-79.098c-4.142 0-7.5 3.357-7.5 7.5s3.358 7.5 7.5 7.5h79.098c4.142 0 7.5-3.357 7.5-7.5z" fill="#ffffff"/><path d="m115.258 311.683h-31.246c-4.142 0-7.5 3.357-7.5 7.5s3.358 7.5 7.5 7.5h31.246c4.142 0 7.5-3.357 7.5-7.5s-3.358-7.5-7.5-7.5z" fill="#ffffff"/><path d="m91.512 282.173c0-4.143-3.358-7.5-7.5-7.5h-76.512c-4.142 0-7.5 3.357-7.5 7.5s3.358 7.5 7.5 7.5h76.512c4.142 0 7.5-3.357 7.5-7.5z" fill="#ffffff"/><path d="m319.529 165.83c4.143 0 7.5-3.357 7.5-7.5v-11.448c0-4.143-3.357-7.5-7.5-7.5s-7.5 3.357-7.5 7.5v11.448c0 4.143 3.357 7.5 7.5 7.5z" fill="#ffffff"/><path d="m401.99 173.538c-2.93-2.928-7.678-2.928-10.607 0l-8.095 8.095c-2.929 2.93-2.929 7.678 0 10.607 2.931 2.929 7.678 2.928 10.607 0l8.095-8.095c2.928-2.929 2.928-7.677 0-10.607z" fill="#ffffff"/><path d="m417.199 248.5c-4.143 0-7.5 3.357-7.5 7.5s3.357 7.5 7.5 7.5h11.447c4.143 0 7.5-3.357 7.5-7.5s-3.357-7.5-7.5-7.5z" fill="#ffffff"/><path d="m393.895 319.759c-2.93-2.928-7.678-2.928-10.607 0-2.929 2.93-2.929 7.678 0 10.607l8.095 8.095c2.931 2.929 7.678 2.928 10.607 0 2.929-2.93 2.929-7.678 0-10.607z" fill="#ffffff"/><path d="m312.029 353.67v11.447c0 4.143 3.357 7.5 7.5 7.5s7.5-3.357 7.5-7.5v-11.447c0-4.143-3.357-7.5-7.5-7.5s-7.5 3.358-7.5 7.5z" fill="#ffffff"/><path d="m245.162 319.759-8.095 8.095c-2.929 2.93-2.929 7.678 0 10.607 2.93 2.929 7.678 2.928 10.606 0l8.095-8.095c2.929-2.93 2.929-7.678 0-10.607-2.928-2.928-7.677-2.928-10.606 0z" fill="#ffffff"/><path d="m210.411 248.5c-4.142 0-7.5 3.357-7.5 7.5s3.358 7.5 7.5 7.5h11.448c4.142 0 7.5-3.357 7.5-7.5s-3.358-7.5-7.5-7.5z" fill="#ffffff"/><path d="m255.769 181.633-8.095-8.095c-2.929-2.928-7.678-2.928-10.606 0-2.929 2.93-2.929 7.678 0 10.607l8.095 8.095c2.93 2.929 7.678 2.928 10.606 0 2.929-2.929 2.929-7.677 0-10.607z" fill="#ffffff"/><path d="m359.859 256c0-4.143-3.357-7.5-7.5-7.5h-25.33v-55.684c0-4.143-3.357-7.5-7.5-7.5s-7.5 3.357-7.5 7.5v63.184c0 4.143 3.357 7.5 7.5 7.5h32.83c4.142 0 7.5-3.357 7.5-7.5z" fill="#ffffff"/><path d="m461.741 254.762c4.135-.251 7.283-3.806 7.032-7.94-4.771-78.703-70.327-140.354-149.245-140.354-82.452 0-149.532 67.08-149.532 149.533 0 82.452 67.08 149.532 149.532 149.532 73.869 0 136.9-54.122 147.865-127.157.615-4.096-2.207-7.915-6.304-8.53-4.086-.613-7.915 2.206-8.53 6.304-9.85 65.614-66.506 114.384-133.031 114.384-74.181 0-134.532-60.351-134.532-134.532s60.351-134.533 134.532-134.533c71.001 0 129.98 55.461 134.272 126.263.25 4.132 3.802 7.27 7.941 7.03z" fill="#ffffff"/><path d="m319.528 63.529c-26.381 0-52.228 5.473-76.018 15.708h-132.329c-4.142 0-7.5 3.357-7.5 7.5s3.358 7.5 7.5 7.5h104.113c-14.077 9.06-27.036 19.988-38.462 32.604-2.78 3.069-2.546 7.812.524 10.593 3.071 2.781 7.812 2.546 10.594-.524 33.602-37.102 81.561-58.381 131.578-58.381 97.858 0 177.472 79.613 177.472 177.471 0 97.857-79.613 177.471-177.472 177.471-97.858 0-177.471-79.613-177.471-177.471 0-34.268 9.789-67.528 28.307-96.186 2.248-3.479 1.25-8.121-2.229-10.369-3.479-2.247-8.121-1.251-10.37 2.229-20.09 31.088-30.708 67.163-30.708 104.326 0 67.766 35.206 127.458 88.285 161.763h-104.16c-4.142 0-7.5 3.357-7.5 7.5s3.358 7.5 7.5 7.5h132.225c23.36 10.099 49.097 15.708 76.122 15.708 106.128 0 192.471-86.342 192.471-192.471s-86.343-192.471-192.472-192.471z" fill="#ffffff"/></g><g transform="matrix(0.07988553494215012 0 0 0.07988553494215012 90.25088733434677 254.25088733434677)" id="L1_3"><path d="M303.7988,116.4854l-6.646-6.646,6.4366-19.31A8.0008,8.0008,0,0,0,304,88V45a29.0328,29.0328,0,0,0-29-29H232a8,8,0,0,0-8,8V92a27.8969,27.8969,0,0,0,7.519,19.0737l-9.9765,19.9532a48.0956,48.0956,0,0,0-5.0083,23.8632l5.5016,110.0332-20.3507,26.1651a8,8,0,0,0,.6582,10.5683l2.7866,2.7867A37.8818,37.8818,0,0,0,232,315.5557a38.2729,38.2729,0,0,0,8-.8454V384h16V307.0376a38.297,38.297,0,0,0,2.87-2.5942l37.13-37.13V284a12.0137,12.0137,0,0,1-12,12h-4V478a2.002,2.002,0,0,1-2,2H224v-1.585a11.9849,11.9849,0,0,1,8.2051-11.3842L241.2983,464H256V400H240v48a8.0008,8.0008,0,0,0-2.53.4106l-10.3247,3.4415A27.9636,27.9636,0,0,0,208,478.415V488a8,8,0,0,0,8,8h62a18.02,18.02,0,0,0,18-18V309.2958A28.0357,28.0357,0,0,0,312,284V168H296v71.7158a11.9217,11.9217,0,0,1-3.5146,8.4854L247.5566,293.13a22.033,22.033,0,0,1-28.7719,2.0347l51.53-66.253A8,8,0,0,0,272,224V152H256v69.2554L237.0886,245.57l-4.574-91.4786a32.0592,32.0592,0,0,1,3.3384-15.9087L244.9443,120h39.7422l7.7989,7.7988A11.9217,11.9217,0,0,1,296,136.2842V152h16V136.2842A27.8162,27.8162,0,0,0,303.7988,116.4854ZM275,32a13.0144,13.0144,0,0,1,13,13V72h-4a4.0045,4.0045,0,0,1-4-4,20.023,20.023,0,0,0-20-20H240V32Zm-23,72a12.0137,12.0137,0,0,1-12-12V64h20a4.0045,4.0045,0,0,1,4,4,20.023,20.023,0,0,0,20,20h3.5672l-5.3333,16Z" fill="#08c2a3"/><path d="M487.7988,116.4854l-6.646-6.646,6.4366-19.31A8.0008,8.0008,0,0,0,488,88V45a29.0328,29.0328,0,0,0-29-29H440V32h19a13.0144,13.0144,0,0,1,13,13V72h-4a4.0045,4.0045,0,0,1-4-4,20.023,20.023,0,0,0-20-20H408V44a12.0137,12.0137,0,0,1,12-12h4V16h-4a28.0314,28.0314,0,0,0-28,28V56a8,8,0,0,0,8,8h8V92a27.8969,27.8969,0,0,0,7.519,19.0737l-9.9765,19.9532a48.0956,48.0956,0,0,0-5.0083,23.8632l5.5016,110.0331-20.3507,26.1652a8,8,0,0,0,.6582,10.5683l2.7866,2.7867A37.8818,37.8818,0,0,0,416,315.5557a38.2729,38.2729,0,0,0,8-.8454V448a8.0008,8.0008,0,0,0-2.53.4106l-10.3247,3.4415A27.9636,27.9636,0,0,0,392,478.415V488a8,8,0,0,0,8,8h62a18.02,18.02,0,0,0,18-18V352H464V478a2.002,2.002,0,0,1-2,2H408v-1.585a11.9849,11.9849,0,0,1,8.2051-11.3842L425.2983,464H440V307.0376a38.297,38.297,0,0,0,2.87-2.5942l37.13-37.13V284a12.0137,12.0137,0,0,1-12,12h-4v40h16V309.2958A28.0357,28.0357,0,0,0,496,284V136.2842A27.8162,27.8162,0,0,0,487.7988,116.4854ZM448,68a20.023,20.023,0,0,0,20,20h3.5672l-5.3333,16H436a12.0137,12.0137,0,0,1-12-12V64h20A4.0045,4.0045,0,0,1,448,68Zm32,171.7158a11.9217,11.9217,0,0,1-3.5146,8.4854L431.5566,293.13a22.033,22.033,0,0,1-28.7719,2.0347l51.53-66.253A8,8,0,0,0,456,224V152H440v69.2549L421.0885,245.57l-4.5739-91.4783a32.0592,32.0592,0,0,1,3.3384-15.9087L428.9443,120h39.7422l7.7989,7.7988A11.9217,11.9217,0,0,1,480,136.2842Z" fill="#08c2a3"/><path d="M119.7988,116.4854l-6.646-6.646,6.4366-19.31A8.0008,8.0008,0,0,0,120,88V45A29.0328,29.0328,0,0,0,91,16H44A28.0314,28.0314,0,0,0,16,44V56a8,8,0,0,0,8,8H40V92a27.8969,27.8969,0,0,0,7.519,19.0737l-9.9765,19.9532A48.0956,48.0956,0,0,0,32.5342,154.89L33.61,176.3994l15.98-.7988-1.0757-21.5093a32.0592,32.0592,0,0,1,3.3384-15.9087L60.9443,120h39.7422l7.7989,7.7988A11.9217,11.9217,0,0,1,112,136.2842V239.7158a11.9217,11.9217,0,0,1-3.5146,8.4854L63.5566,293.13a22.033,22.033,0,0,1-28.7719,2.0347l51.53-66.253A8,8,0,0,0,88,224V152H72v69.2549L53.0886,245.57,50.39,191.6006l-15.98.7988,3.6261,72.5238L17.6851,291.0884a8,8,0,0,0,.6582,10.5683l2.7866,2.7867A37.8818,37.8818,0,0,0,48,315.5557a38.2729,38.2729,0,0,0,8-.8454V448a8.0008,8.0008,0,0,0-2.53.4106l-10.3247,3.4415A27.9636,27.9636,0,0,0,24,478.415V488a8,8,0,0,0,8,8H94a18.02,18.02,0,0,0,18-18V352H96V478a2.002,2.002,0,0,1-2,2H40v-1.585a11.9849,11.9849,0,0,1,8.2051-11.3842L57.2983,464H72V307.0376a38.297,38.297,0,0,0,2.87-2.5942l37.13-37.13V284a12.0137,12.0137,0,0,1-12,12H96v40h16V309.2958A28.0357,28.0357,0,0,0,128,284V136.2842A27.8162,27.8162,0,0,0,119.7988,116.4854ZM32,48V44A12.0137,12.0137,0,0,1,44,32H91a13.0144,13.0144,0,0,1,13,13V72h-4a4.0045,4.0045,0,0,1-4-4A20.023,20.023,0,0,0,76,48Zm36,56A12.0137,12.0137,0,0,1,56,92V64H76a4.0045,4.0045,0,0,1,4,4,20.023,20.023,0,0,0,20,20h3.5672l-5.3333,16Z" fill="#08c2a3"/></g></defs><g fi:class="KUsePattern"><pattern id="pattern_L1_0" width="350" height="350" patternUnits="userSpaceOnUse"><use xlink:href="#L1_0" x="-350" y="-350"/><use xlink:href="#L1_0" x="0" y="-350"/><use xlink:href="#L1_0" x="350" y="-350"/><use xlink:href="#L1_0" x="-350" y="0"/><use xlink:href="#L1_0" x="0" y="0"/><use xlink:href="#L1_0" x="350" y="0"/><use xlink:href="#L1_0" x="-350" y="350"/><use xlink:href="#L1_0" x="0" y="350"/><use xlink:href="#L1_0" x="350" y="350"/></pattern><rect x="0" y="0" width="100%" height="100%" fill="url(#pattern_L1_0)"/></g><g fi:class="KUsePattern" opacity="0.43"><pattern id="pattern_L1_1" width="350" height="350" patternUnits="userSpaceOnUse"><use xlink:href="#L1_1" x="-350" y="-350"/><use xlink:href="#L1_1" x="0" y="-350"/><use xlink:href="#L1_1" x="350" y="-350"/><use xlink:href="#L1_1" x="-350" y="0"/><use xlink:href="#L1_1" x="0" y="0"/><use xlink:href="#L1_1" x="350" y="0"/><use xlink:href="#L1_1" x="-350" y="350"/><use xlink:href="#L1_1" x="0" y="350"/><use xlink:href="#L1_1" x="350" y="350"/></pattern><rect x="0" y="0" width="100%" height="100%" fill="url(#pattern_L1_1)"/></g><g fi:class="KUsePattern" opacity="0.31"><pattern id="pattern_L1_3" width="350" height="350" patternUnits="userSpaceOnUse"><use xlink:href="#L1_3" x="-350" y="-350"/><use xlink:href="#L1_3" x="0" y="-350"/><use xlink:href="#L1_3" x="350" y="-350"/><use xlink:href="#L1_3" x="-350" y="0"/><use xlink:href="#L1_3" x="0" y="0"/><use xlink:href="#L1_3" x="350" y="0"/><use xlink:href="#L1_3" x="-350" y="350"/><use xlink:href="#L1_3" x="0" y="350"/><use xlink:href="#L1_3" x="350" y="350"/></pattern><rect x="0" y="0" width="100%" height="100%" fill="url(#pattern_L1_3)"/></g></svg>