<svg xmlns="http://www.w3.org/2000/svg" width="27.905" height="52.6" viewBox="0 0 27.905 52.6"><g transform="translate(143.228) rotate(90)"><path d="M58.56,133.03V127.17a.533.533,0,0,0-.465-.525,3.35,3.35,0,0,1-2.965-3.275v-.006a.544.544,0,0,0-.55-.541h-43.1a.544.544,0,0,0-.55.541v.006a3.349,3.349,0,0,1-2.965,3.275.533.533,0,0,0-.465.525v5.859a.535.535,0,0,0,.454.521,2.479,2.479,0,0,1,0,4.91.535.535,0,0,0-.454.521v5.859a.533.533,0,0,0,.465.525,3.349,3.349,0,0,1,2.965,3.275v.006a.544.544,0,0,0,.55.541h43.1a.544.544,0,0,0,.55-.541v-.006a3.349,3.349,0,0,1,2.965-3.275.533.533,0,0,0,.465-.525v-5.859a.535.535,0,0,0-.454-.521,2.479,2.479,0,0,1,0-4.91A.535.535,0,0,0,58.56,133.03Z" transform="translate(-6.73 -6.73)" fill="#06dab0"/><path d="M116,177.621H80.959a.5.5,0,0,1-.514-.488V159.1a.5.5,0,0,1,.514-.488H116a.5.5,0,0,1,.514.488v18.034A.5.5,0,0,1,116,177.621Z" transform="translate(-72.18 -38.841)" fill="#fff"/><path d="M51.51,127.548a1.286,1.286,0,0,0,1.09-1.255v-5.871a1.29,1.29,0,0,0-1.132-1.263,2.607,2.607,0,0,1-2.3-2.548,1.26,1.26,0,0,0-.39-.915,1.331,1.331,0,0,0-.931-.373H4.751a1.331,1.331,0,0,0-.931.373,1.263,1.263,0,0,0-.39.919,2.606,2.606,0,0,1-2.3,2.544A1.29,1.29,0,0,0,0,120.422v5.871a1.286,1.286,0,0,0,1.09,1.255,1.745,1.745,0,0,1,0,3.455A1.286,1.286,0,0,0,0,132.258v5.871a1.29,1.29,0,0,0,1.132,1.263,2.607,2.607,0,0,1,2.3,2.548,1.26,1.26,0,0,0,.39.915,1.331,1.331,0,0,0,.931.373h7.541a.744.744,0,1,0,0-1.488H4.966a4.12,4.12,0,0,0-3.425-3.791v-5.517a3.219,3.219,0,0,0,0-6.313V120.6a4.122,4.122,0,0,0,3.425-3.791H47.634a4.12,4.12,0,0,0,3.425,3.791v5.517a3.219,3.219,0,0,0,0,6.313v5.517a4.121,4.121,0,0,0-3.425,3.791H17.087a.744.744,0,1,0,0,1.488H47.849a1.331,1.331,0,0,0,.931-.373,1.262,1.262,0,0,0,.39-.919,2.606,2.606,0,0,1,2.3-2.544,1.29,1.29,0,0,0,1.132-1.263v-5.871A1.286,1.286,0,0,0,51.51,131a1.745,1.745,0,0,1,0-3.454Z" transform="translate(0 0)" fill="#fff"/><path d="M94.627,152.58a.736.736,0,1,0,0-1.47h-20.4a1.257,1.257,0,0,0-1.284,1.225v18.1a1.257,1.257,0,0,0,1.284,1.225h35.044a1.257,1.257,0,0,0,1.284-1.225v-18.1a1.257,1.257,0,0,0-1.284-1.225H99.508a.736.736,0,1,0,0,1.47h9.507v17.612H74.485V152.58Z" transform="translate(-65.45 -32.11)" fill="#caeef2"/><g transform="translate(-84.253 263.422) rotate(-90)"><rect width="2" height="12" rx="1" transform="matrix(0.719, 0.695, -0.695, 0.719, 139.575, 105.252)" fill="#06dab0"/><rect width="2" height="6" rx="1" transform="translate(133.852 114.011) rotate(135)" fill="#06dab0"/></g></g></svg>